<svg width="274" height="218" viewBox="0 0 274 218" fill="none" xmlns="http://www.w3.org/2000/svg">
<path opacity="0.04" d="M124.888 131.182C136.944 133.999 148.104 140.126 159.389 145.571C177.589 154.353 196.975 161.576 216.836 160.952C236.696 160.328 257.212 150.604 267.433 131.949C277.653 113.294 274.192 85.5653 257.303 74.056C238.252 61.0755 212.321 72.0735 191.623 62.6095C180.208 57.39 171.853 46.6217 163.098 37.0407C150.036 22.7472 134.806 10.2022 117.188 4.19834C99.5695 -1.8055 79.2719 -0.527164 64.1125 10.9453C48.9532 22.4178 40.5662 45.0812 47.0897 64.0005C49.4034 70.7107 53.4659 77.3298 52.3686 84.3932C50.9098 93.7705 41.2653 98.5415 32.716 100.173C24.1667 101.805 14.6629 102.257 8.33637 108.757C-18.3721 136.192 33.4172 158.749 51.6479 160.294C64.5368 161.386 72.335 154.16 81.2913 144.96C93.9399 131.967 107.554 127.131 124.893 131.18L124.888 131.182Z" fill="white"/>
<path opacity="0.04" d="M81.2587 54.4737C75.4668 52.6472 71.3415 50.136 66.6232 46.9272C61.9048 43.7183 57.4787 39.8812 52.098 37.9897C42.1202 34.4818 30.3156 38.8498 23.9112 47.2717C17.5068 55.6957 16.2342 67.3848 19.3292 77.5075C22.4243 87.6302 29.491 96.2275 37.9949 102.522C46.4987 108.816 56.3986 112.971 66.4695 116.2C91.5114 124.227 118.387 126.814 144.37 122.773C170.353 118.733 195.385 107.975 215.624 91.1705C222.279 85.6433 228.779 78.7555 229.701 70.1473C230.45 63.1555 227.207 56.1247 222.208 51.1825C217.208 46.2425 210.622 43.1853 203.875 41.2202C180.186 34.3193 154.898 40.0177 130.797 45.2978C106.697 50.578 104.385 63.0818 81.2609 54.4693" fill="white"/>
<path opacity="0.08" d="M247.38 206.413C247.271 206.396 245.912 206.24 245.804 206.234C178.886 201.905 119.612 203.417 51.7518 204.084C46.5162 204.136 41.0987 204.206 36.35 205.155C31.5992 206.106 27.686 208.192 28.3786 210.368C29.108 212.651 34.6099 214.196 40.0533 214.489C45.4967 214.781 50.9705 214.138 56.3663 213.663C86.9533 210.972 118.38 213.689 149.121 215.682C179.864 217.674 212.672 218.824 241.146 213.34C244.287 212.736 247.468 212.01 249.468 210.825C251.167 209.817 251.711 208.415 250.438 207.339C249.693 206.708 248.477 206.589 247.38 206.413Z" fill="white"/>
<path d="M167.616 26.7382H83.3582C76.9439 26.7382 71.7441 31.9435 71.7441 38.3645V144.232C71.7441 150.653 76.9439 155.858 83.3582 155.858H167.616C174.03 155.858 179.23 150.653 179.23 144.232V38.3645C179.23 31.9435 174.03 26.7382 167.616 26.7382Z" fill="#D2F9FF"/>
<path d="M160.763 37.3007H90.2152C86.1462 37.3007 82.8477 40.6027 82.8477 44.676V119.656C82.8477 123.729 86.1462 127.031 90.2152 127.031H160.763C164.832 127.031 168.131 123.729 168.131 119.656V44.676C168.131 40.6027 164.832 37.3007 160.763 37.3007Z" fill="#00C7FD"/>
<mask id="mask0_117_2538" style="mask-type:luminance" maskUnits="userSpaceOnUse" x="82" y="37" width="87" height="91">
<path d="M160.763 37.3007H90.2152C86.1462 37.3007 82.8477 40.6027 82.8477 44.676V119.656C82.8477 123.729 86.1462 127.031 90.2152 127.031H160.763C164.832 127.031 168.131 123.729 168.131 119.656V44.676C168.131 40.6027 164.832 37.3007 160.763 37.3007Z" fill="white"/>
</mask>
<g mask="url(#mask0_117_2538)">
<path d="M78.4561 129.885H179.877V100.418C176.526 99.614 172.994 99.3627 169.542 99.133C160.813 99.133 152.64 98.2902 144.595 95.1377C136.505 91.9678 133.47 83.338 126.772 83.338C121.908 83.338 114.655 94.3252 107.318 92.4597C106.948 92.3665 106.582 92.256 106.221 92.1282C103.611 91.1987 98.6736 88.2607 95.914 88.2607C90.4078 88.2607 87.5919 90.8065 85.5812 92.1065C83.2112 93.6383 80.8325 95.1593 78.4582 96.6825V129.885H78.4561Z" fill="#0095CA"/>
<path d="M151.729 81.7563C153.112 80.673 155.067 80.6405 156.454 81.7195C156.818 82.0012 157.166 82.3045 157.504 82.6035C161.304 85.9662 165.103 89.3288 168.904 92.6937C179.518 102.086 190.13 111.479 200.744 120.873C200.127 121.116 182.684 138.202 182.067 138.445L97.4053 124.305L151.729 81.7563Z" fill="#A0EBFF"/>
<mask id="mask1_117_2538" style="mask-type:luminance" maskUnits="userSpaceOnUse" x="97" y="80" width="104" height="59">
<path d="M151.729 81.7563C153.112 80.673 155.067 80.6405 156.454 81.7195C156.818 82.0012 157.166 82.3045 157.504 82.6035C161.304 85.9662 165.103 89.3288 168.904 92.6937C179.518 102.086 190.13 111.479 200.744 120.873C200.127 121.116 182.684 138.202 182.067 138.445L97.4053 124.305L151.729 81.7563Z" fill="white"/>
</mask>
<g mask="url(#mask1_117_2538)">
<path d="M155.331 69.8765C150.256 66.9017 146.797 68.6307 142.702 72.8578C138.605 77.0828 133.893 81.9145 130.341 86.6075C121.757 97.95 108.139 108.606 97.3753 114.451C92.3171 117.199 92.5098 119.456 90.8692 124.444C89.0619 129.937 91.3886 137.347 96.0918 140.707C100.47 143.838 106.093 144.822 111.491 144.767C126.833 144.609 134.382 136.636 142.702 123.733C151.024 110.831 159.863 93.3913 153.695 79.3318C151.814 75.0462 149.195 70.9512 145.394 68.2255C141.594 65.4998 136.462 64.3428 132.122 66.087" fill="#6DDCFF"/>
<path opacity="0.8" d="M169.709 86.3107C167.068 81.687 163.887 76.6365 158.718 75.3668C155.052 74.4655 151.125 75.7677 148.056 77.9668C144.989 80.1682 142.626 83.1928 140.306 86.1742C139.485 87.2293 138.641 88.3343 138.358 89.6408C138.074 90.9473 138.531 92.5203 139.741 93.0902C141.414 93.8788 143.234 92.438 144.535 91.1228C145.836 89.8077 147.699 88.3993 149.342 89.2443C151.491 90.3493 150.838 94.1367 152.969 95.2785C154.348 96.0152 156.036 95.1485 157.212 94.1193C158.387 93.088 159.523 91.8097 161.069 91.5865C162.62 91.3633 164.075 92.282 165.564 92.7695C169.858 94.1757 175.044 91.4218 176.291 87.0755" fill="white"/>
</g>
<path d="M157.291 131.221C157.848 131.354 158.406 131.488 158.962 131.62C144.92 125.259 132.226 115.931 121.954 104.428C119.004 101.124 115.837 97.404 111.454 96.7778C106.842 96.1192 102.589 99.1308 98.9007 101.982C91.544 107.672 84.1851 113.362 76.8283 119.049L76.7461 129.793L157.291 131.221Z" fill="#005B85"/>
<mask id="mask2_117_2538" style="mask-type:luminance" maskUnits="userSpaceOnUse" x="76" y="96" width="83" height="36">
<path d="M157.291 131.221C157.848 131.354 158.406 131.488 158.962 131.62C144.92 125.259 132.226 115.931 121.954 104.428C119.004 101.124 115.837 97.404 111.454 96.7778C106.842 96.1192 102.589 99.1308 98.9007 101.982C91.544 107.672 84.1851 113.362 76.8283 119.049L76.7461 129.793L157.291 131.221Z" fill="white"/>
</mask>
<g mask="url(#mask2_117_2538)">
<path d="M123.778 133.899C120.148 131.906 116.017 129.094 116.112 124.949C116.181 121.907 118.642 118.952 117.597 116.096C116.681 113.593 113.666 112.75 111.134 111.934C108.601 111.117 105.725 109.271 106.067 106.63C106.521 103.128 112.099 102.318 112.777 98.8535C113.272 96.325 110.536 94.1107 107.963 94.1215C105.39 94.1323 103.089 95.6273 100.955 97.0682C94.1066 101.694 87.2563 106.322 80.4082 110.948V126.654" fill="#005B85"/>
</g>
<mask id="mask3_117_2538" style="mask-type:luminance" maskUnits="userSpaceOnUse" x="76" y="96" width="83" height="36">
<path d="M157.291 131.221C157.848 131.354 158.406 131.488 158.962 131.62C144.92 125.259 132.226 115.931 121.954 104.428C119.004 101.124 115.837 97.404 111.454 96.7778C106.842 96.1192 102.589 99.1308 98.9007 101.982C91.544 107.672 84.1851 113.362 76.8283 119.049L76.7461 129.793L157.291 131.221Z" fill="white"/>
</mask>
<g mask="url(#mask3_117_2538)">
<path d="M123.778 133.899C120.148 131.906 116.017 129.094 116.112 124.949C116.181 121.907 118.642 118.952 117.597 116.096C116.681 113.593 113.666 112.75 111.134 111.934C108.601 111.117 105.725 109.271 106.067 106.63C106.522 103.128 112.099 102.318 112.777 98.8535C113.272 96.325 110.536 94.1107 107.963 94.1215C105.39 94.1323 103.089 95.6273 100.955 97.0682C94.1066 101.694 83.6765 114.423 76.8283 119.049L76.7461 129.793" fill="#00C7FD"/>
</g>
</g>
<path d="M114.493 71.3325C108.788 71.3065 103.083 71.2805 97.3773 71.2545C95.9402 71.248 94.4598 71.2307 93.1784 70.5092C91.8971 69.7877 90.8496 68.1735 90.9902 66.3318C91.1591 64.1132 92.988 62.447 94.7216 62.2152C96.4553 61.9833 98.0959 62.811 99.6608 63.6235C98.8859 60.8307 101.362 57.5633 103.723 57.6413C106.085 57.7193 107.922 60.1763 108.738 62.9475C109.377 60.3042 111.532 58.2827 113.647 58.3455C115.762 58.4083 117.61 60.5512 117.857 63.2205C119.248 60.8177 122.131 60.1092 123.926 61.7082C125.718 63.305 126.131 66.9082 124.824 69.3847C123.519 71.8612 121.276 71.5275 118.781 71.5275L114.493 71.3347V71.3325Z" fill="#A0EBFF"/>
<path d="M123.781 75.7937C132.298 75.7937 139.202 68.8821 139.202 60.3562C139.202 51.8303 132.298 44.9187 123.781 44.9187C115.264 44.9187 108.359 51.8303 108.359 60.3562C108.359 68.8821 115.264 75.7937 123.781 75.7937Z" fill="#FFE17A"/>
<mask id="mask4_117_2538" style="mask-type:luminance" maskUnits="userSpaceOnUse" x="108" y="44" width="32" height="32">
<path d="M123.781 75.7937C132.298 75.7937 139.202 68.8821 139.202 60.3562C139.202 51.8303 132.298 44.9187 123.781 44.9187C115.264 44.9187 108.359 51.8303 108.359 60.3562C108.359 68.8821 115.264 75.7937 123.781 75.7937Z" fill="white"/>
</mask>
<g mask="url(#mask4_117_2538)">
<path d="M118.142 74.459C127.005 74.459 134.189 67.2671 134.189 58.3953C134.189 49.5236 127.005 42.3317 118.142 42.3317C109.28 42.3317 102.096 49.5236 102.096 58.3953C102.096 67.2671 109.28 74.459 118.142 74.459Z" fill="#FEC91B"/>
</g>
<path d="M156.35 63.5845C159.657 63.5845 162.356 60.6898 162.443 57.4658C162.538 53.9103 159.612 51.0005 155.987 51.0005C155.143 51.0005 154.34 51.163 153.602 51.449C152.857 48.7732 150.355 46.8015 147.375 46.8015C146.054 46.8015 144.831 47.1915 143.812 47.8567C143.13 48.3008 142.303 48.2228 141.687 47.6703C140.804 46.8795 139.689 46.4072 138.475 46.4072C136.087 46.4072 134.079 48.2293 133.475 50.7102C133.323 51.3342 132.75 51.67 132.209 51.4577L132.198 51.4533C131.456 51.1608 130.642 50.9983 129.791 50.9983C125.975 50.9983 122.932 54.2223 123.374 58.0292C123.59 59.8968 124.683 61.5435 126.235 62.551C127.278 63.227 128.521 63.5282 129.763 63.5303C129.763 63.5303 149.729 63.5823 156.352 63.5823L156.35 63.5845Z" fill="white"/>
<path d="M53.1325 84.7442L53.4658 86.9325C53.6585 88.2065 54.6584 89.2075 55.9332 89.4025L58.1193 89.7362C58.4223 89.7817 58.4223 90.2172 58.1193 90.2627L55.9332 90.5963C54.6606 90.7892 53.6606 91.7902 53.4658 93.0663L53.1325 95.2547C53.0871 95.558 52.652 95.558 52.6066 95.2547L52.2733 93.0663C52.0806 91.7923 51.0807 90.7913 49.8059 90.5963L47.6198 90.2627C47.3168 90.2172 47.3168 89.7817 47.6198 89.7362L49.8059 89.4025C51.0785 89.2097 52.0785 88.2087 52.2733 86.9325L52.6066 84.7442C52.652 84.4408 53.0871 84.4408 53.1325 84.7442Z" fill="#00C7FD"/>
<path d="M41.9665 67.6925L42.4773 71.0487C42.7738 73.0052 44.3084 74.5392 46.2606 74.836L49.6133 75.3473C50.0765 75.4188 50.0765 76.0862 49.6133 76.1555L46.2606 76.6668C44.3062 76.9637 42.7738 78.4998 42.4773 80.4542L41.9665 83.8103C41.8951 84.274 41.2284 84.274 41.1592 83.8103L40.6484 80.4542C40.3519 78.4977 38.8173 76.9637 36.8651 76.6668L33.5124 76.1555C33.0492 76.084 33.0492 75.4167 33.5124 75.3473L36.8651 74.836C38.8195 74.5392 40.3519 73.003 40.6484 71.0487L41.1592 67.6925C41.2306 67.2288 41.8972 67.2288 41.9665 67.6925Z" fill="#FF5662"/>
<path d="M110.653 175.376C109.527 174.893 108.315 174.591 107.071 174.485C104.56 174.273 102.268 172.759 101.454 170.373C101.396 170.2 101.329 170.029 101.255 169.857C99.3244 165.411 93.5585 163.351 88.9873 164.956C88.1432 165.253 87.3489 165.654 86.613 166.139C85.1304 167.119 83.1933 165.886 83.3405 164.114C84.2084 153.597 81.6652 142.783 75.8842 133.921C74.4643 131.746 72.2718 130.132 69.7135 129.679C62.8892 128.47 59.3807 136.036 58.1081 142.271C57.5107 145.199 57.0237 148.15 56.6471 151.114C56.3506 153.443 53.3876 154.255 51.9266 152.42C50.273 150.344 48.206 148.652 45.7473 147.629C44.2236 146.995 42.5808 146.631 40.9294 146.631C32.4991 146.631 26.7527 156.309 27.6422 164.701C28.0902 168.928 29.6854 172.832 31.8216 176.515C31.616 176.427 31.4169 176.327 31.2048 176.245C27.3868 174.782 22.5884 175.088 19.792 178.073C17.0064 181.046 17.0129 185.899 18.9371 189.492C20.8612 193.084 24.3264 195.597 27.9301 197.495C41.5441 204.66 58.844 204.247 72.0987 196.438C82.8102 205.092 99.3894 205.464 110.48 197.305C111.317 196.687 112.131 196.009 112.865 195.266C115.237 193.264 116.843 190.252 117.003 186.523C117.226 181.308 114.518 176.812 110.653 175.38V175.376Z" fill="#FEC91B"/>
<path d="M96.3183 193.916C95.0846 192.269 93.0544 191.526 91.0199 191.583C89.9096 191.613 88.8837 190.833 88.678 189.741C88.6196 189.435 88.5287 189.134 88.4053 188.846C87.2539 186.194 83.8147 184.966 81.0875 185.923C81.0702 185.93 81.0529 185.936 81.0334 185.943C79.4318 186.521 77.7717 185.377 77.8107 183.672C77.9384 177.956 76.3973 172.195 73.2633 167.398C72.4495 166.155 71.2006 165.212 69.7462 164.911C65.5754 164.046 63.4392 168.627 62.6708 172.392C62.2249 174.572 61.883 176.773 61.6449 178.988C61.5367 179.991 60.2337 180.286 59.6904 179.436C58.6126 177.748 57.1386 176.355 55.2989 175.59C54.3899 175.211 53.4094 174.995 52.4246 174.995C47.3967 174.995 43.9684 180.767 44.4986 185.772C44.7778 188.408 45.8124 190.835 47.176 193.121C45.3969 192.551 43.3991 192.614 41.8906 193.561C40.2045 194.2 38.9881 195.701 39.5314 197.968C39.5574 198.074 39.5941 198.176 39.6266 198.28C39.6504 198.798 39.7327 199.311 39.8798 199.805C40.4491 201.707 41.8126 203.296 43.4078 204.476C47.637 207.609 53.2817 208.062 58.5238 207.622C63.7682 207.183 68.9735 205.969 74.2308 206.229C78.5141 206.439 82.7455 207.627 87.0288 207.384C89.8035 207.226 92.7189 206.238 94.7578 204.446H94.8076C94.866 204.383 94.9201 204.314 94.9764 204.249C95.9785 203.309 96.749 202.165 97.1451 200.81C97.1191 200.782 97.0953 200.754 97.0694 200.728C97.8918 198.41 97.8074 195.909 96.3205 193.925L96.3183 193.916Z" fill="#FFE17A"/>
<path d="M67.8443 206.79C67.801 206.79 67.7556 206.78 67.7144 206.756C67.5846 206.684 67.5348 206.52 67.6084 206.387C73.0994 196.395 73.5778 180.676 73.0128 169.249C72.4003 156.847 70.4567 146.685 70.4372 146.583C70.4091 146.436 70.5043 146.295 70.6515 146.267C70.7987 146.239 70.9394 146.334 70.9675 146.481C70.987 146.583 72.9349 156.777 73.5518 169.216C74.121 180.715 73.634 196.542 68.0802 206.649C68.0304 206.738 67.9374 206.79 67.8421 206.79H67.8443Z" fill="#333333"/>
<path d="M69.6942 195.69C68.5622 195.69 66.9822 195.556 65.1208 195.03C61.6968 194.059 56.6581 191.509 52.0956 184.87C52.0112 184.747 52.0415 184.578 52.1648 184.493C52.2882 184.409 52.457 184.439 52.5414 184.562C57.0044 191.054 61.9089 193.548 65.2377 194.499C68.8436 195.528 71.4322 195.019 71.4581 195.012C71.6053 194.982 71.7482 195.077 71.7785 195.222C71.8088 195.37 71.7135 195.513 71.5685 195.543C71.5144 195.554 70.8305 195.69 69.6963 195.69H69.6942Z" fill="#333333"/>
<path d="M73.2638 160.887C73.0842 160.887 72.9781 160.876 72.9716 160.876C72.8223 160.859 72.7162 160.725 72.7357 160.575C72.753 160.428 72.8872 160.322 73.0366 160.339C73.2465 160.363 78.1726 160.844 79.9474 153.622C79.9842 153.477 80.1292 153.389 80.2743 153.423C80.4193 153.46 80.508 153.605 80.4734 153.75C78.8306 160.426 74.4412 160.887 73.266 160.887H73.2638Z" fill="#333333"/>
<path d="M77.1101 194.44C76.5647 192.958 76.4586 190.833 77.9304 190.265C79.2702 189.747 80.5623 191.058 81.4064 192.222C84.7049 196.769 88.0035 201.315 91.302 205.863C89.3172 200.232 88.1355 194.319 87.8043 188.356C87.7069 186.61 87.9342 184.448 89.5445 183.772C90.512 183.366 91.6678 183.713 92.4643 184.396C93.2607 185.078 93.7564 186.042 94.1633 187.009C96.6459 192.906 96.371 199.9 93.4361 205.588C94.713 201.454 97.2843 197.734 100.698 195.079C102.035 194.039 103.79 193.129 105.362 193.764C106.795 194.345 107.492 196.089 107.275 197.621C107.059 199.153 106.124 200.485 105.076 201.625C101.656 205.349 94.6979 209.39 89.5726 207.117C84.1011 204.691 79.1966 200.095 77.1101 194.438V194.44Z" fill="#005B85"/>
<path d="M98.035 188.558C98.7622 187.739 99.799 186.931 100.823 187.279C102.149 187.732 102.234 189.613 101.976 191.024C101.201 195.298 97.6129 202.216 95.3923 205.921C97.1779 204.485 102.067 201.419 104.271 200.871C105.156 200.65 106.227 200.561 106.848 201.246C107.695 202.178 107.028 203.701 106.203 204.654C103.474 207.813 95.797 210.82 94.1023 205.02C92.4877 199.489 94.3101 192.75 98.0307 188.556L98.035 188.558Z" fill="#00C7FD"/>
<path d="M252.611 190.595C253.916 188.064 254.602 184.37 251.639 183.087C250.28 182.498 248.693 182.749 247.486 183.609C245.124 185.295 243.06 187.366 241.337 189.693C242.945 184.74 243.949 179.592 244.287 174.394C244.334 173.651 244.114 172.889 243.596 172.353C242.237 170.949 240.341 172.173 239.166 173.415C235.114 177.696 232.454 185.782 231.415 191.583C231.415 191.583 231.471 185.382 231.162 183.451C230.969 182.253 230.489 181.078 229.428 180.493C226.957 179.131 224.957 181.9 224.351 184.283C223.279 188.504 223.842 193.091 225.671 197.079C225.418 197.079 225.167 197.071 224.913 197.088C223.145 197.199 221.366 197.74 220.256 198.769C218.238 200.639 219.089 203.599 221.409 205.261C223.729 206.923 227.082 207.523 230.296 207.681C231.452 207.737 233.764 207.709 236.85 207.388C237.553 207.315 239.332 207.356 240.038 207.371C241.98 207.41 243.44 207.245 246.878 206.559C248.109 206.312 249.256 205.664 249.992 204.645C252.117 201.696 249.02 198.908 246.111 198.923C248.761 196.572 250.986 193.741 252.609 190.592L252.611 190.595Z" fill="#FEC91B"/>
<path d="M234.268 207.735C234.132 207.735 234.015 207.633 234 207.494C232.489 194.182 238.692 183.271 238.755 183.161C238.831 183.031 238.995 182.987 239.125 183.061C239.255 183.137 239.298 183.302 239.225 183.432C239.162 183.538 233.047 194.304 234.539 207.432C234.556 207.581 234.45 207.716 234.301 207.731C234.29 207.731 234.279 207.731 234.27 207.731L234.268 207.735Z" fill="#333333"/>
<path d="M233.85 201.586C233.344 201.586 231.45 201.493 230.067 200.171C229.086 199.235 228.591 197.903 228.591 196.204C228.591 196.054 228.712 195.933 228.861 195.933C229.011 195.933 229.132 196.054 229.132 196.204C229.132 197.747 229.571 198.949 230.441 199.779C231.853 201.124 233.93 201.042 233.952 201.042C234.101 201.036 234.229 201.151 234.236 201.3C234.242 201.45 234.127 201.577 233.978 201.584C233.967 201.584 233.924 201.586 233.852 201.586H233.85Z" fill="#333333"/>
<path d="M235.896 197.972C235.244 197.972 234.796 197.883 234.753 197.874C234.606 197.844 234.513 197.701 234.543 197.556C234.573 197.409 234.716 197.315 234.861 197.344C234.885 197.348 237.188 197.794 238.982 196.542C240.088 195.771 240.783 194.512 241.047 192.8C241.071 192.653 241.207 192.551 241.356 192.575C241.503 192.599 241.605 192.735 241.581 192.885C241.294 194.75 240.521 196.13 239.287 196.99C238.127 197.799 236.811 197.972 235.896 197.972Z" fill="#333333"/>
<path d="M142.47 117.829H107.935C101.198 117.829 95.7363 123.296 95.7363 130.04V167.758C95.7363 174.502 101.198 179.969 107.935 179.969H142.47C149.207 179.969 154.668 174.502 154.668 167.758V130.04C154.668 123.296 149.207 117.829 142.47 117.829Z" fill="#FF5662"/>
<path d="M144.967 146.648L127.152 128.814C126.172 127.833 124.581 127.833 123.598 128.814L105.783 146.648C104.201 148.232 105.322 150.942 107.56 150.942H115.733V163.84C115.733 165.845 117.356 167.47 119.358 167.47H131.395C133.397 167.47 135.02 165.845 135.02 163.84V150.942H143.193C145.431 150.942 146.552 148.234 144.97 146.648H144.967Z" fill="white"/>
<path d="M202.289 61.2034C202.836 60.3346 202.673 59.2483 201.925 58.7771C201.178 58.3059 200.129 58.6282 199.582 59.4969C199.036 60.3657 199.199 61.452 199.946 61.9232C200.694 62.3944 201.743 62.0722 202.289 61.2034Z" fill="#E6E6E6"/>
<path d="M197.267 63.9225L198.822 74.4287L193.43 74.8663L192.906 64.0503L197.267 63.9225Z" fill="#FFC599"/>
<path d="M201.607 57.793C200.809 52.4132 196.177 48.641 191.264 49.369C187.344 49.9497 185.357 52.3438 185.225 56.7183C185.191 57.8277 185.277 59.0648 185.478 60.4298C186.277 65.8097 187.972 71.6423 191.779 68.4465C198.963 62.4188 202.406 63.1707 201.61 57.7908L201.607 57.793Z" fill="#FFC599"/>
<path d="M186.318 56.2308L184.028 61.1578C183.837 61.5695 184.078 62.0527 184.523 62.1458L186.023 62.4578L186.32 56.2308H186.318Z" fill="#FFC599"/>
<path d="M199.544 65.8335C200.549 64.1478 202.581 64.8303 203.659 63.1923C204.585 61.7818 203.44 61.2748 205.49 58.9717C206.09 58.2978 206.289 57.3553 206.096 56.4735C206.044 56.2395 206.007 56.0683 206.003 56.0532C205.566 54.7293 206.509 53.3925 206.893 52.0513C207.393 50.2942 206.845 48.2792 205.523 47.0203C204.22 45.7788 202.741 45.3303 200.988 44.9295C199.058 44.4875 198.216 44.0477 196.285 43.6078C195.036 43.3218 193.675 43.0488 192.517 43.597C190.958 44.338 190.19 46.3942 188.502 46.7582C187.742 46.9228 186.985 46.5913 186.175 46.7365C186.171 46.7365 186.166 46.7365 186.162 46.7365C181.961 47.4992 182.576 51.6505 184.749 52.9137C185.184 53.1542 185.692 53.178 186.53 53.6633C191.025 56.2612 196.127 50.344 194.281 56.311C192.781 61.1557 196.196 66.8865 197.283 66.8865C197.562 66.8865 197.724 67.322 197.783 67.387C198.231 67.8918 199.267 66.3058 199.547 65.8378L199.544 65.8335Z" fill="#005B85"/>
<path d="M196.976 58.8308C196.976 60.3952 195.114 61.6107 194.114 61.6107C193.114 61.6107 193.357 59.9813 193.357 58.8308C193.357 57.6803 194.166 56.7465 195.166 56.7465C196.166 56.7465 196.976 57.6803 196.976 58.8308Z" fill="#FFC599"/>
<path d="M212.95 201.718H208.667L204.414 190.692H209.823L212.95 201.718Z" fill="#DD9F76"/>
<path d="M193.803 205.401C194.411 204.84 196.638 204.602 197.653 204.409C198.372 204.275 199.164 204.062 199.837 203.776C201.333 203.139 205.774 201.33 205.774 201.33C206.614 200.875 207.605 200.804 208.503 201.129C208.843 201.252 209.166 201.365 209.36 201.423C210.906 201.883 211.815 201.527 213.191 200.687C213.544 200.47 213.997 200.732 213.986 201.146L214.369 205.679C214.436 206.483 213.83 207.029 212.994 207.165C209.148 207.796 198.363 207.858 194.528 207.165C193.563 206.992 193.123 206.025 193.801 205.401H193.803Z" fill="#005B85"/>
<path d="M187.729 131.501C189.17 135.732 190.114 140.118 190.553 144.566C192.127 160.578 193.852 174.305 199.211 190.341C199.758 191.979 200.431 193.749 202.007 194.657C203.812 195.697 206.208 195.326 208.29 194.943C209.176 194.78 211.775 194.282 211.775 194.282C214.307 193.691 215.736 191.216 214.861 188.946C211.719 180.795 207.314 172.553 205.262 164.116C204.546 161.171 203.979 158.415 203.877 156.43C203.736 153.668 203.758 149.71 203.92 142.982C204.109 135.191 206.574 124.808 204.245 117.318C203.687 115.52 203.942 115.158 202.464 113.879C199.704 111.494 193.821 118.15 190.084 118.681C188.436 118.915 186.588 119.261 185.685 120.557C185.032 121.493 185.058 122.685 185.105 123.798L187.731 131.499L187.729 131.501Z" fill="#E96115"/>
<path d="M178.938 203.989H174.654L175.78 192.963H181.812L178.938 203.989Z" fill="#FFC599"/>
<path d="M159.088 207.423C159.744 206.818 162.144 206.561 163.239 206.355C164.014 206.21 164.869 205.98 165.594 205.672C167.206 204.985 171.994 203.035 171.994 203.035C172.899 202.544 173.968 202.468 174.935 202.819C175.303 202.951 175.65 203.072 175.86 203.135C177.526 203.631 178.507 203.248 179.989 202.342C180.37 202.11 180.857 202.392 180.846 202.838L181.26 207.724C181.333 208.591 180.677 209.178 179.779 209.325C175.632 210.006 164.007 210.073 159.873 209.325C158.834 209.137 158.36 208.097 159.088 207.425V207.423Z" fill="#0095CA"/>
<path d="M186.996 118.379C177.563 142.759 171.925 167.288 170.635 193.208C170.594 194.024 170.564 194.871 170.888 195.628C171.769 197.677 174.622 198.061 176.968 198.132C180.091 198.228 183.847 198.009 185.39 195.45C186.453 193.688 185.989 191.509 185.747 189.496C185.115 184.277 186.184 179.022 187.247 173.863C188.465 167.953 189.015 163.437 190.234 157.527C190.903 154.279 192.571 145.695 194.013 142.676C195.632 139.283 197.766 134.941 200.034 131.899C205.053 125.17 204.651 122.436 205.055 118.945C205.484 115.244 203.915 116.902 201.411 114.024C197.995 110.098 194.673 112.64 189.284 112.508" fill="#FF8F51"/>
<path d="M204.406 90.0937C203.484 101.358 206.754 106.277 207.726 114.781L209.345 120.247C209.345 123.746 206.267 121.688 202.542 121.528C194.755 121.194 184.887 129.31 183.593 121.357C182.959 117.47 185.612 113.186 185.699 109.823C185.779 106.64 186.024 101.794 185.941 99.4862C185.941 99.4862 186.762 90.1392 187.48 85.561C188.281 80.4628 189.333 74.3268 193.958 72.4895C193.958 72.4895 195.456 71.8763 196.815 71.8763C206.542 71.8763 204.406 90.0893 204.406 90.0893V90.0937Z" fill="#0095CA"/>
<path d="M191.237 88.4947C191.077 86.3475 188.878 84.1375 186.547 86.003C185.833 86.575 185.352 87.3918 185.09 88.2693C184.22 91.1748 183.723 92.568 182.943 95.0943C182.658 96.0195 182.355 97.1397 181.182 98.6823C181.019 98.8947 179.686 97.9327 178.935 96.7367C176.199 92.386 173.219 87.615 170.498 84.2393C170.078 83.7193 169.7 83.1668 169.347 82.5992L168.762 81.6567C168.762 81.6567 168.005 80.3805 166.86 77.1175C166.23 75.3235 164.224 72.6867 162.447 70.7973C161.8 70.1083 161.295 69.5082 160.78 69.441C160.105 69.3522 160.007 69.8007 160.661 70.5872C161.67 71.7962 162.702 73.38 163.375 74.4698L162.654 74.2337C161.724 73.9303 160.737 74.2488 160.207 75.0245L158.585 77.3927C158.436 77.6115 158.395 77.8888 158.471 78.1532L158.966 79.88C159.094 80.3242 159.453 80.673 159.899 80.7857L161.507 81.2082C161.901 82.5623 162.97 82.9805 163.743 83.0997C164.302 83.1863 164.791 83.5265 165.031 84.04L167.392 89.0797C169.552 93.361 173.145 98.7885 175.957 102.699C177.017 104.173 178.403 106.634 180.188 106.955C182.288 107.332 184.571 104.628 185.978 103.022C188.709 99.9065 190.891 95.1615 191.162 91.0232C191.289 89.6842 191.356 90.1153 191.235 88.499L191.237 88.4947Z" fill="#FFC599"/>
<path d="M191.255 90.9148C191.237 90.9365 191.203 90.9733 191.166 91.0188C191.211 90.9668 191.24 90.9343 191.255 90.9148Z" fill="#FFC599"/>
<path d="M195.26 86.7527C195.755 85.7863 196.227 84.69 196.521 83.559C196.632 83.2535 196.736 82.9458 196.82 82.6295C197.482 80.1053 197.069 77.098 193.742 75.915C193.145 75.7027 192.509 75.5943 191.877 75.603C189.836 75.6312 188.76 76.6235 187.762 78.3308C186.712 80.127 186.45 81.1562 185.316 84.209C184.736 85.6238 184.158 87.0387 183.578 88.4535C183.345 89.0255 183.559 89.6863 184.089 90.007C184.862 90.475 185.745 90.9083 186.639 91.1163C187.773 91.3785 188.989 90.9842 190.123 91.2463C191.394 91.541 192.729 92.282 193.989 92.0762C194.493 91.9938 194.762 91.4262 194.53 90.969C194.288 90.4902 194.195 89.9225 194.234 89.3808C194.251 89.1382 194.296 88.8998 194.353 88.6637C194.686 87.9248 194.993 87.2748 195.26 86.7527Z" fill="#00C7FD"/>
</svg>
